<?xml version="1.0" encoding="UTF-8"?>
<svg version="1.1" xmlns="http://www.w3.org/2000/svg" width="442" height="422">
<path d="M0 0 C0.95506439 0.00304138 1.91012878 0.00608276 2.89413452 0.00921631 C18.35378412 0.0817038 33.18437957 1.01962685 48.3125 4.4375 C49.77623047 4.75895996 49.77623047 4.75895996 51.26953125 5.08691406 C71.30709363 9.59733521 90.24179065 16.70430203 108.3125 26.4375 C109.30757568 26.96512939 109.30757568 26.96512939 110.32275391 27.50341797 C137.68029955 42.06923253 161.72475212 62.66281249 180.3125 87.4375 C180.74062988 87.99953125 181.16875977 88.5615625 181.60986328 89.140625 C205.17109756 120.18089671 221.15679184 160.89993177 221.55078125 200.08984375 C221.56062042 200.8987355 221.57045959 201.70762726 221.58059692 202.54103088 C222.15665636 262.25098363 202.55486832 314.15465469 161.3125 357.4375 C160.58675781 358.21609375 159.86101562 358.9946875 159.11328125 359.796875 C152.75817597 366.42216036 145.62706682 371.92875407 138.3125 377.4375 C137.7649707 377.85644531 137.21744141 378.27539062 136.65332031 378.70703125 C112.17918624 397.36245105 83.77436484 409.77619609 54 417.125 C53.24396484 417.31545898 52.48792969 417.50591797 51.70898438 417.70214844 C34.83171197 421.66229466 17.91436574 422.99288161 0.625 422.875 C-0.33006439 422.87195862 -1.28512878 422.86891724 -2.26913452 422.86578369 C-17.72878412 422.7932962 -32.55937957 421.85537315 -47.6875 418.4375 C-48.66332031 418.22319336 -49.63914063 418.00888672 -50.64453125 417.78808594 C-70.68209363 413.27766479 -89.61679065 406.17069797 -107.6875 396.4375 C-108.35088379 396.08574707 -109.01426758 395.73399414 -109.69775391 395.37158203 C-137.05529955 380.80576747 -161.09975212 360.21218751 -179.6875 335.4375 C-180.11562988 334.87546875 -180.54375977 334.3134375 -180.98486328 333.734375 C-204.54609756 302.69410329 -220.53179184 261.97506823 -220.92578125 222.78515625 C-220.93562042 221.9762645 -220.94545959 221.16737274 -220.95559692 220.33396912 C-221.53165636 160.62401637 -201.92986832 108.72034531 -160.6875 65.4375 C-159.96175781 64.65890625 -159.23601562 63.8803125 -158.48828125 63.078125 C-152.13317597 56.45283964 -145.00206682 50.94624593 -137.6875 45.4375 C-137.1399707 45.01855469 -136.59244141 44.59960938 -136.02832031 44.16796875 C-111.55418624 25.51254895 -83.14936484 13.09880391 -53.375 5.75 C-52.24094727 5.46431152 -52.24094727 5.46431152 -51.08398438 5.17285156 C-34.20671197 1.21270534 -17.28936574 -0.11788161 0 0 Z " fill="#000101" transform="translate(220.6875,-0.4375)"/>
<path d="M0 0 C0.99 0.33 1.98 0.66 3 1 C4.02734375 3.15795898 4.02734375 3.15795898 4.9375 5.99609375 C5.44410156 7.54780273 5.44410156 7.54780273 5.9609375 9.13085938 C6.30382812 10.22205078 6.64671875 11.31324219 7 12.4375 C7.34289062 13.49388672 7.68578125 14.55027344 8.0390625 15.63867188 C9.59658711 20.46283685 11.09922884 25.30078536 12.54296875 30.16015625 C14.02574176 35.14389331 15.65429672 40.07227178 17.3125 45 C17.7621814 46.3466272 17.7621814 46.3466272 18.22094727 47.72045898 C19.72684921 52.22706577 21.24683922 56.72834777 22.7890625 61.22265625 C23.06709717 62.03927734 23.34513184 62.85589844 23.6315918 63.69726562 C24.15659409 65.23807817 24.6864666 66.77724258 25.22192383 68.31445312 C26.39411043 71.76627125 27 74.30966624 27 78 C54.06 78 81.12 78 109 78 C106.71511461 82.56977079 106.42556376 82.3779319 102 84 C100.19002223 85.23621759 98.42226419 86.53528112 96.6875 87.875 C95.62254771 88.68900082 94.55743511 89.50279194 93.4921875 90.31640625 C92.92725586 90.75098145 92.36232422 91.18555664 91.78027344 91.63330078 C76.20447108 103.59069815 60.16908087 114.8644243 44 126 C44.73018963 130.24321308 45.99250084 134.24605613 47.375 138.3125 C47.60123047 138.98547119 47.82746094 139.65844238 48.06054688 140.35180664 C49.14926717 143.57078443 50.26494041 146.77177255 51.5 149.9375 C54.96677518 158.98637082 57.6177664 168.36573565 60 177.75 C61.49927044 183.55737815 63.54449261 188.84644951 65.9609375 194.32421875 C67.36270731 197.93403949 67.77782644 201.14899155 68 205 C59.34294054 200.85545699 51.69104228 194.67483385 44 189 C43.21753906 188.42636719 42.43507813 187.85273438 41.62890625 187.26171875 C40.92636719 186.74222656 40.22382813 186.22273437 39.5 185.6875 C38.8915625 185.23761719 38.283125 184.78773438 37.65625 184.32421875 C36 183 36 183 34.46484375 181.43359375 C32.61017666 179.61849289 30.46437941 178.59666822 28.20703125 177.3515625 C24.32410836 174.97370176 20.77140427 172.14829492 17.15625 169.38671875 C13.16676836 166.36992014 9.08327528 163.4946628 4.984375 160.62890625 C4.00210938 159.82259766 4.00210938 159.82259766 3 159 C3 158.34 3 157.68 3 157 C-1.01499964 159.32644839 -4.79951684 161.91676073 -8.5625 164.625 C-9.17963867 165.06739014 -9.79677734 165.50978027 -10.43261719 165.96557617 C-15.23236402 169.41855599 -19.96012002 172.96173724 -24.6796875 176.5234375 C-28.70863996 179.54452817 -32.791559 182.49070013 -36.875 185.4375 C-37.63981689 185.98946045 -38.40463379 186.5414209 -39.19262695 187.11010742 C-42.83886178 189.73686504 -46.49195233 192.35321843 -50.16015625 194.94921875 C-50.80033691 195.40304932 -51.44051758 195.85687988 -52.10009766 196.32446289 C-53.28927991 197.16618145 -54.48024961 198.00538274 -55.67333984 198.84155273 C-57.84562183 200.37868195 -59.87944964 201.8781072 -61.75390625 203.7734375 C-63 205 -63 205 -65 205 C-64.45648158 198.55967899 -62.8198451 193.09894423 -60.5625 187.0625 C-58.77455601 182.24426744 -57.03786153 177.54424571 -56.02734375 172.49609375 C-55.37255992 169.3127997 -54.4574234 166.47446486 -53.203125 163.4765625 C-50.20215433 156.285925 -48.03667987 148.81497072 -45.75 141.375 C-45.28683336 139.87879011 -44.82329439 138.38269542 -44.359375 136.88671875 C-43.23529136 133.25912487 -42.11624063 129.63001453 -41 126 C-41.60183105 125.70971924 -42.20366211 125.41943848 -42.82373047 125.12036133 C-45.79387442 123.59130697 -48.42881506 121.64521488 -51.125 119.6875 C-51.72973145 119.25163574 -52.33446289 118.81577148 -52.95751953 118.36669922 C-54.27528272 117.41640523 -55.59214084 116.46485521 -56.90820312 115.51220703 C-59.05505873 113.9601968 -61.20671489 112.41504107 -63.359375 110.87109375 C-71.47337021 105.04296727 -79.51973362 99.13746933 -87.49438477 93.12011719 C-93.54169898 88.56717038 -99.70148214 84.19901191 -106 80 C-106 79.34 -106 78.68 -106 78 C-78.94 78 -51.88 78 -24 78 C-23.34 74.37 -22.68 70.74 -22 67 C-21.0703125 63.9765625 -21.0703125 63.9765625 -20.125 61.625 C-18.11451561 56.39924657 -16.44886794 51.10939493 -14.83203125 45.75 C-14.24948718 43.82459614 -13.63612401 41.90837204 -13 40 C-12.34 40 -11.68 40 -11 40 C-10.89623047 39.33645508 -10.79246094 38.67291016 -10.68554688 37.98925781 C-9.51667283 31.01269368 -7.73189618 24.45502703 -5.5 17.75 C-4.88452088 15.87008471 -4.26991704 13.98988259 -3.65625 12.109375 C-3.37007813 11.23603516 -3.08390625 10.36269531 -2.7890625 9.46289062 C-1.78438623 6.3270075 -0.87674109 3.17380274 0 0 Z " fill="#F7CA08" transform="translate(215,49)"/>
<path d="M0 0 C0.66 0.33 1.32 0.66 2 1 C2.84130271 4.18547798 3.5163304 7.36780692 4.1484375 10.59960938 C5.92840692 18.91870373 8.88988706 25.70636549 12 34 C29.325 34.495 29.325 34.495 47 35 C42.40206005 38.67835196 37.73344959 42.22124944 33.015625 45.7421875 C31.18530196 47.1125589 29.36069766 48.49067473 27.546875 49.8828125 C26.85078125 50.41648438 26.1546875 50.95015625 25.4375 51.5 C24.83808594 51.9640625 24.23867187 52.428125 23.62109375 52.90625 C22 54 22 54 19 55 C19.17128418 55.52843506 19.34256836 56.05687012 19.51904297 56.60131836 C20.3085822 59.04537145 21.09181232 61.49140453 21.875 63.9375 C22.14441406 64.76830078 22.41382813 65.59910156 22.69140625 66.45507812 C24.43547079 71.92123163 25.85832589 77.37768529 27 83 C27.20625 84.010625 27.4125 85.02125 27.625 86.0625 C27.74875 86.701875 27.8725 87.34125 28 88 C24.65890076 87.37964421 22.53879045 86.16843223 19.8125 84.1640625 C18.64074219 83.30941406 18.64074219 83.30941406 17.4453125 82.4375 C16.63835937 81.839375 15.83140625 81.24125 15 80.625 C14.19304687 80.03460938 13.38609375 79.44421875 12.5546875 78.8359375 C6.4599982 74.37052158 6.4599982 74.37052158 3.89013672 72.30053711 C2.04829545 70.75617027 2.04829545 70.75617027 -0.4296875 71.08984375 C-3.46581324 72.16494603 -5.56372348 73.6090488 -8.125 75.5625 C-9.07503906 76.27535156 -10.02507812 76.98820312 -11.00390625 77.72265625 C-11.99261719 78.47417969 -12.98132813 79.22570312 -14 80 C-16.01610754 81.50634583 -18.03675241 83.00664336 -20.0625 84.5 C-20.96097656 85.1703125 -21.85945313 85.840625 -22.78515625 86.53125 C-25 88 -25 88 -27 88 C-26.91131893 86.62391448 -26.80314061 85.24908258 -26.6875 83.875 C-26.62949219 83.10929687 -26.57148438 82.34359375 -26.51171875 81.5546875 C-26 79 -26 79 -24.625 76.28125 C-22.59216825 72.17649357 -21.47788002 68.04006509 -20.3125 63.625 C-20.08755859 62.79355469 -19.86261719 61.96210938 -19.63085938 61.10546875 C-19.08154634 59.07184178 -18.53997873 57.03612534 -18 55 C-18.70898438 54.75507813 -19.41796875 54.51015625 -20.1484375 54.2578125 C-23.38472906 52.83029759 -25.82810061 51.03863915 -28.625 48.875 C-29.66398437 48.07835937 -30.70296875 47.28171875 -31.7734375 46.4609375 C-32.30420898 46.05327148 -32.83498047 45.64560547 -33.38183594 45.22558594 C-36.86971562 42.5838907 -40.45144743 40.06846115 -44.015625 37.53125 C-44.67046875 37.0259375 -45.3253125 36.520625 -46 36 C-46 35.67 -46 35.34 -46 35 C-34.12 34.67 -22.24 34.34 -10 34 C-9.34 31.03 -8.68 28.06 -8 25 C-7.27035408 23.38208948 -6.54002709 21.76437618 -5.7890625 20.15625 C-4.26094269 15.98039784 -3.5817008 11.56446238 -2.74609375 7.20703125 C-2.10960252 4.47111867 -1.39470246 2.41229654 0 0 Z " fill="#050400" transform="translate(216,112)"/>
<path d="M0 0 C3.3 0 6.6 0 10 0 C11.33838733 2.45570175 12.67086232 4.91429916 14 7.375 C14.3815625 8.07367188 14.763125 8.77234375 15.15625 9.4921875 C18 14.7734375 18 14.7734375 18 17 C21.21420331 15.39289834 21.62773217 12.25278301 23 9 C24.65 6.03 26.3 3.06 28 0 C42.19 0 56.38 0 71 0 C71 2.64 71 5.28 71 8 C66.71 8 62.42 8 58 8 C58 19.55 58 31.1 58 43 C55.03 43 52.06 43 49 43 C49 31.45 49 19.9 49 8 C44.38 8 39.76 8 35 8 C33.35 10.97 31.7 13.94 30 17 C29.34 17 28.68 17 28 17 C27.71125 17.928125 27.4225 18.85625 27.125 19.8125 C26 23 26 23 24 26 C23.6373883 27.92744369 23.6373883 27.92744369 23.5859375 30.01171875 C23.54726562 30.76904297 23.50859375 31.52636719 23.46875 32.30664062 C23.42234375 33.48516602 23.42234375 33.48516602 23.375 34.6875 C23.33632812 35.48478516 23.29765625 36.28207031 23.2578125 37.10351562 C23.16367506 39.06863475 23.08075368 41.0342854 23 43 C20.36 43 17.72 43 15 43 C15.03222656 42.01902344 15.06445312 41.03804688 15.09765625 40.02734375 C15.12211299 29.1454552 12.14115815 22.57754961 6.07055664 13.71459961 C4.33934823 10.94190254 3.20116128 8.0375872 2 5 C1.608125 4.030625 1.21625 3.06125 0.8125 2.0625 C0.544375 1.381875 0.27625 0.70125 0 0 Z " fill="#DFDEDA" transform="translate(212,288)"/>
<path d="M0 0 C2.97 0 5.94 0 9 0 C9 14.52 9 29.04 9 44 C0 44 0 44 -2.453125 41.5859375 C-3.04609375 40.52632813 -3.6390625 39.46671875 -4.25 38.375 C-4.89710938 37.27800781 -5.54421875 36.18101562 -6.2109375 35.05078125 C-6.80132812 34.04402344 -7.39171875 33.03726563 -8 32 C-8.92339825 30.82583116 -9.87426913 29.67149708 -10.875 28.5625 C-12.95518308 26.05404393 -13.93087021 24.04290787 -15 21 C-15.66 20.01 -16.32 19.02 -17 18 C-17.33 26.58 -17.66 35.16 -18 44 C-20.64 44 -23.28 44 -26 44 C-26 29.81 -26 15.62 -26 1 C-17 1 -17 1 -15.01953125 2.6171875 C-14.62121094 3.36226563 -14.22289063 4.10734375 -13.8125 4.875 C-13.3484375 5.69097656 -12.884375 6.50695312 -12.40625 7.34765625 C-11.9421875 8.22292969 -11.478125 9.09820312 -11 10 C-9.94549258 11.77560441 -8.88309241 13.54654733 -7.8125 15.3125 C-7.34457031 16.11300781 -6.87664062 16.91351563 -6.39453125 17.73828125 C-5.04160309 19.93252608 -3.55883489 21.94929843 -2 24 C-1.97494385 23.30849854 -1.9498877 22.61699707 -1.92407227 21.90454102 C-1.80847839 18.79032134 -1.68558758 15.67643211 -1.5625 12.5625 C-1.52318359 11.47388672 -1.48386719 10.38527344 -1.44335938 9.26367188 C-1.40146484 8.22919922 -1.35957031 7.19472656 -1.31640625 6.12890625 C-1.27974854 5.17056885 -1.24309082 4.21223145 -1.20532227 3.22485352 C-1 1 -1 1 0 0 Z " fill="#F3F2ED" transform="translate(140,287)"/>
<path d="M0 0 C3.95576938 1.99598298 6.61182116 4.25978341 9 8 C9.71006869 11.04609175 9.50649489 12.84847627 9 16 C6.03 16 3.06 16 0 16 C-0.99 13.69 -1.98 11.38 -3 9 C-5.97 8.67 -8.94 8.34 -12 8 C-12.33 10.31 -12.66 12.62 -13 15 C-10.09892756 16.17856068 -7.23955017 17.24080911 -4.25 18.1875 C0.88567061 20.17708232 5.48902702 22.67579497 9 27 C10.24297507 30.94658904 10.26842338 34.05840397 9 38 C5.93347301 41.59161723 2.43804574 43.52065142 -2 45 C-3.78879802 45.1190686 -5.5822856 45.17522113 -7.375 45.1875 C-8.31085938 45.20167969 -9.24671875 45.21585937 -10.2109375 45.23046875 C-14.95865684 44.83815021 -18.15638085 43.37638649 -21.3125 39.8125 C-23.71212938 36.89121206 -23.99592197 36.0428193 -24.375 32.0625 C-24.25125 31.051875 -24.1275 30.04125 -24 29 C-21.03 29 -18.06 29 -15 29 C-14.71125 29.969375 -14.4225 30.93875 -14.125 31.9375 C-13.35785318 35.10664203 -13.35785318 35.10664203 -11 36 C-9.45976004 36.06950541 -7.91665012 36.08452357 -6.375 36.0625 C-5.14910156 36.04896484 -5.14910156 36.04896484 -3.8984375 36.03515625 C-3.27195312 36.02355469 -2.64546875 36.01195312 -2 36 C-1.67 34.35 -1.34 32.7 -1 31 C-2.02480469 30.55269531 -3.04960937 30.10539062 -4.10546875 29.64453125 C-5.46641412 29.03445229 -6.82707637 28.4237415 -8.1875 27.8125 C-8.86103516 27.52052734 -9.53457031 27.22855469 -10.22851562 26.92773438 C-15.86988954 24.36847694 -19.52348688 21.21476969 -23 16 C-23.74006676 10.50236118 -22.61533253 7.71741837 -19.38671875 3.48046875 C-14.32402256 -1.92449423 -6.76700685 -1.00711825 0 0 Z " fill="#E2E1DC" transform="translate(360,287)"/>
<path d="M0 0 C2.64 0 5.28 0 8 0 C8.36351562 0.90878906 8.72703125 1.81757813 9.1015625 2.75390625 C9.34148926 3.35364258 9.58141602 3.95337891 9.82861328 4.57128906 C10.36627197 5.91560062 10.90370135 7.26000391 11.44091797 8.60449219 C12.81994876 12.0548737 14.20212058 15.5038974 15.59375 18.94921875 C24 39.78949214 24 39.78949214 24 43 C21.03 43 18.06 43 15 43 C11 35.25 11 35.25 11 33 C6.05 33 1.1 33 -4 33 C-4.309375 34.464375 -4.61875 35.92875 -4.9375 37.4375 C-5.875 41.875 -5.875 41.875 -7 43 C-8.51928038 43.07179964 -10.04167482 43.08392007 -11.5625 43.0625 C-12.38878906 43.05347656 -13.21507812 43.04445313 -14.06640625 43.03515625 C-14.70449219 43.02355469 -15.34257812 43.01195312 -16 43 C-15.63154143 39.40752895 -14.83278715 36.42993815 -13.3125 33.1875 C-11.2451593 28.76069438 -9.64580923 24.23999517 -8.0625 19.625 C-5.743158 12.8936655 -3.12654745 6.40527199 0 0 Z " fill="#E8E7E2" transform="translate(167,288)"/>
<path d="M0 0 C2.97 0 5.94 0 9 0 C9.44730469 1.22074219 9.89460938 2.44148438 10.35546875 3.69921875 C13.49014137 12.2389191 16.64288758 20.76628941 19.95703125 29.23828125 C23.29031643 38.06462066 23.29031643 38.06462066 23 43 C20.69 43 18.38 43 16 43 C15.32845067 41.71086513 14.66291141 40.41859796 14 39.125 C13.62875 38.40570313 13.2575 37.68640625 12.875 36.9453125 C12 35 12 35 12 33 C6.72 33 1.44 33 -4 33 C-4.66 36.3 -5.32 39.6 -6 43 C-9.3 43 -12.6 43 -16 43 C-13.14154887 34.08315023 -10.02671113 25.34726798 -6.4921875 16.67578125 C-4.24806369 11.1477171 -2.12469806 5.57498209 0 0 Z " fill="#E9E9E4" transform="translate(88,288)"/>
<path d="M0 0 C7.50527537 -0.38281941 7.50527537 -0.38281941 11.28515625 2.3515625 C12.30609375 3.7746875 12.30609375 3.7746875 13.34765625 5.2265625 C14.49234375 6.680625 14.49234375 6.680625 15.66015625 8.1640625 C17.51381627 11.52811217 17.70733025 13.44998552 17.34765625 17.2265625 C14.37765625 17.2265625 11.40765625 17.2265625 8.34765625 17.2265625 C7.02765625 14.5865625 5.70765625 11.9465625 4.34765625 9.2265625 C-1.49523686 8.88703822 -1.49523686 8.88703822 -6.65234375 11.2265625 C-7.92098539 15.03248743 -7.87554447 18.63526891 -7.90234375 22.6015625 C-7.92296875 23.35695313 -7.94359375 24.11234375 -7.96484375 24.890625 C-7.99707809 29.50013615 -7.63397911 32.47780736 -4.65234375 36.2265625 C-2.24688737 37.42929069 -0.70237422 37.32727722 1.97265625 37.2890625 C3.19855469 37.27552734 3.19855469 37.27552734 4.44921875 37.26171875 C5.07570313 37.25011719 5.7021875 37.23851562 6.34765625 37.2265625 C6.56421875 35.2775 6.56421875 35.2775 6.78515625 33.2890625 C7.22265625 29.3515625 7.22265625 29.3515625 8.34765625 28.2265625 C9.86693663 28.15476286 11.38933107 28.14264243 12.91015625 28.1640625 C13.73644531 28.17308594 14.56273437 28.18210937 15.4140625 28.19140625 C16.37119141 28.20880859 16.37119141 28.20880859 17.34765625 28.2265625 C17.01322417 34.69224936 16.01219916 37.67578893 11.34765625 42.2265625 C10.68765625 42.2265625 10.02765625 42.2265625 9.34765625 42.2265625 C9.34765625 42.8865625 9.34765625 43.5465625 9.34765625 44.2265625 C6.15366555 45.16597153 3.2348932 45.39100607 -0.08984375 45.4140625 C-1.01667969 45.42824219 -1.94351562 45.44242187 -2.8984375 45.45703125 C-6.82891745 45.12809747 -9.65527761 43.98902484 -12.77734375 41.6015625 C-18.94710696 33.7865291 -18.70633938 23.74113841 -17.65234375 14.2265625 C-16.47107377 9.41256979 -14.67487664 6.30291292 -11.27734375 2.7265625 C-7.47896203 0.55605866 -4.30002992 0.36730742 0 0 Z " fill="#ECEBE7" transform="translate(317.65234375,286.7734375)"/>
<path d="M0 0 C2.87637713 2.58873942 3.47765853 5.23914141 4 9 C6.97 9 9.94 9 13 9 C13.33 8.34 13.66 7.68 14 7 C18 11 18 11 19.66015625 12.92578125 C23.21454597 16.07666763 27.39693356 17.52684449 31.77539062 19.26757812 C36.75270129 21.40630454 36.75270129 21.40630454 38.08203125 24.59765625 C38 27 38 27 36 29 C33.94140625 29.265625 33.94140625 29.265625 31.5625 29.25 C30.38880859 29.25773437 30.38880859 29.25773437 29.19140625 29.265625 C27 29 27 29 24 27 C23.3125 23.875 23.3125 23.875 23 21 C20.03 21 17.06 21 14 21 C14 22.65 14 24.3 14 26 C13.34 25.67 12.68 25.34 12 25 C12.33 23.35 12.66 21.7 13 20 C10.03 20.33 7.06 20.66 4 21 C3.71125 22.299375 3.4225 23.59875 3.125 24.9375 C2.6328125 27.15234375 2.6328125 27.15234375 2 29 C-1.13871188 30.56935594 -3.53855822 30.35201103 -7 30 C-9.63016161 27.8272578 -11.47336894 26.05326212 -13 23 C-13.12479416 20.19648462 -13.18517138 17.4286626 -13.1875 14.625 C-13.19974609 13.85671875 -13.21199219 13.0884375 -13.22460938 12.296875 C-13.24313997 5.15641839 -13.24313997 5.15641839 -11 2 C-7.57666681 -0.53580237 -4.13358237 -0.45093626 0 0 Z " fill="#080809" transform="translate(322,295)"/>
<path d="M0 0 C2.97 0 5.94 0 9 0 C9 12.21 9 24.42 9 37 C15.6 37 22.2 37 29 37 C29 39.31 29 41.62 29 44 C19.43 44 9.86 44 0 44 C0 29.48 0 14.96 0 0 Z " fill="#E8E7E3" transform="translate(192,287)"/>
<path d="M0 0 C10.89 0 21.78 0 33 0 C33 1.65 33 3.3 33 5 C28.71 5 24.42 5 20 5 C20 17.21 20 29.42 20 42 C17.69 42 15.38 42 13 42 C13 30.12 13 18.24 13 6 C8.71 6 4.42 6 0 6 C0 4.02 0 2.04 0 0 Z " fill="#FCFBF6" transform="translate(249,289)"/>
<path d="M0 0 C2.97 0 5.94 0 9 0 C9 14.52 9 29.04 9 44 C6.03 44 3.06 44 0 44 C0 29.48 0 14.96 0 0 Z " fill="#E5E4DF" transform="translate(286,287)"/>
<path d="M0 0 C2.97 0 5.94 0 9 0 C9 14.52 9 29.04 9 44 C8.67 44 8.34 44 8 44 C8 30.14 8 16.28 8 2 C5.69 2 3.38 2 1 2 C1 10.91 1 19.82 1 29 C0.01 29 -0.98 29 -2 29 C-1.88201056 25.03047101 -1.75778201 21.06119219 -1.62768555 17.09204102 C-1.58428777 15.74085853 -1.5426163 14.38961947 -1.50268555 13.03833008 C-1.44510048 11.09963299 -1.38085702 9.16113724 -1.31640625 7.22265625 C-1.27974854 6.05484619 -1.24309082 4.88703613 -1.20532227 3.68383789 C-1 1 -1 1 0 0 Z " fill="#979794" transform="translate(140,287)"/>
<path d="M0 0 C0.495 1.98 0.495 1.98 1 4 C-37.115 4.495 -37.115 4.495 -76 5 C-74.68 6.65 -73.36 8.3 -72 10 C-75.34419152 10 -76.06840321 9.52480606 -78.6875 7.625 C-79.31011719 7.18414062 -79.93273437 6.74328125 -80.57421875 6.2890625 C-81.04472656 5.86367187 -81.51523438 5.43828125 -82 5 C-82 4.34 -82 3.68 -82 3 C-54.94 3 -27.88 3 0 3 C0 2.01 0 1.02 0 0 Z " fill="#CBAF0E" transform="translate(191,124)"/>
<path d="M0 0 C0.66 0 1.32 0 2 0 C2.50692692 1.5811292 3.00526443 3.16501383 3.5 4.75 C3.7784375 5.63171875 4.056875 6.5134375 4.34375 7.421875 C5 10 5 10 5 14 C1.7 14 -1.6 14 -5 14 C-4.34580901 8.93001981 -2.1453591 4.58009223 0 0 Z " fill="#91908E" transform="translate(92,300)"/>
<path d="M0 0 C3 1 3 1 4.203125 3.36328125 C4.54859375 4.33652344 4.8940625 5.30976562 5.25 6.3125 C5.78367188 7.76076172 5.78367188 7.76076172 6.328125 9.23828125 C7.00546613 12.02246834 6.98017307 13.35478935 6 16 C5.67 14.02 5.34 12.04 5 10 C4.34 10 3.68 10 3 10 C3 9.01 3 8.02 3 7 C-1.52343818 10.5794163 -2.62479799 14.94321792 -4.25 20.25 C-4.518125 21.09046875 -4.78625 21.9309375 -5.0625 22.796875 C-5.71930648 24.86112394 -6.36114927 26.93012363 -7 29 C-8.384434 25.25065467 -7.58310003 22.86596318 -6.34765625 19.140625 C-5.98349609 18.02558594 -5.61933594 16.91054687 -5.24414062 15.76171875 C-4.85419922 14.60285156 -4.46425781 13.44398437 -4.0625 12.25 C-3.67642578 11.07566406 -3.29035156 9.90132812 -2.89257812 8.69140625 C-1.93759379 5.79108344 -0.97310033 2.89428475 0 0 Z " fill="#B89E0A" transform="translate(215,49)"/>
<path d="M0 0 C1.23593891 3.70781672 0.5678132 4.67510253 -0.9375 8.1875 C-1.31777344 9.08855469 -1.69804687 9.98960938 -2.08984375 10.91796875 C-2.39019531 11.60503906 -2.69054687 12.29210937 -3 13 C-3.66 13 -4.32 13 -5 13 C-4.9484375 13.84820312 -4.896875 14.69640625 -4.84375 15.5703125 C-5.0219554 19.48192109 -6.02413061 22.25912 -7.5 25.875 C-7.9640625 27.02742188 -8.428125 28.17984375 -8.90625 29.3671875 C-9.2671875 30.23601562 -9.628125 31.10484375 -10 32 C-11.27749597 28.43125321 -10.71381414 26.52671525 -9.3125 23.0625 C-7.22992391 17.68974292 -5.49592136 12.26536482 -3.83203125 6.75 C-3.24948718 4.82459614 -2.63612401 2.90837204 -2 1 C-1.34 0.67 -0.68 0.34 0 0 Z " fill="#B39909" transform="translate(204,88)"/>
<path d="M0 0 C0.66 0 1.32 0 2 0 C2.99 3.96 3.98 7.92 5 12 C2.36 12 -0.28 12 -3 12 C-2.49202991 7.6822542 -1.80317221 3.96697886 0 0 Z " fill="#252525" transform="translate(170,301)"/>
<path d="M0 0 C2.97 0 5.94 0 9 0 C8.4140625 6.15234375 8.4140625 6.15234375 8 8 C7.01 8.495 7.01 8.495 6 9 C6.33 6.69 6.66 4.38 7 2 C5.02 2 3.04 2 1 2 C0.67 3.65 0.34 5.3 0 7 C-0.66 7 -1.32 7 -2 7 C-1.34 4.69 -0.68 2.38 0 0 Z " fill="#AAAAA6" transform="translate(326,315)"/>
<path d="M0 0 C2.29633824 3.44450737 2.54016485 5.93812283 3 10 C1.02 10 -0.96 10 -3 10 C-2.69201674 8.51988629 -2.378482 7.04092675 -2.0625 5.5625 C-1.88847656 4.73878906 -1.71445313 3.91507812 -1.53515625 3.06640625 C-1 1 -1 1 0 0 Z " fill="#0C0D0D" transform="translate(92,302)"/>
<path d="M0 0 C2 2 2 2 2.125 5.125 C2.08375 6.07375 2.0425 7.0225 2 8 C-0.97 8 -3.94 8 -7 8 C-7.66 5.69 -8.32 3.38 -9 1 C-7.5 2.375 -7.5 2.375 -6 4 C-6 4.66 -6 5.32 -6 6 C-4.02 6 -2.04 6 0 6 C0 4.02 0 2.04 0 0 Z " fill="#AFAEAB" transform="translate(333,296)"/>
<path d="M0 0 C0.66 0.33 1.32 0.66 2 1 C4.38056989 8.64288227 4.38056989 8.64288227 3 13 C2.01 11.02 1.02 9.04 0 7 C-0.99 8.32 -1.98 9.64 -3 11 C-2.53199289 6.94393835 -2.12046792 3.53411321 0 0 Z " fill="#615105" transform="translate(216,112)"/>
<path d="M0 0 C2.31 0 4.62 0 7 0 C7 0.99 7 1.98 7 3 C7.94726954 4.69719127 8.94228261 6.36935236 10 8 C6.01328937 6.63312778 3.11505367 4.84804907 0 2 C0 1.34 0 0.68 0 0 Z " fill="#BEA70C" transform="translate(109,127)"/>
<path d="M0 0 C2.52480693 2.52480693 2.55738633 4.13823034 3.125 7.625 C3.29257812 8.62789062 3.46015625 9.63078125 3.6328125 10.6640625 C3.75398438 11.43492187 3.87515625 12.20578125 4 13 C2.68 12.34 1.36 11.68 0 11 C0.185625 10.29875 0.37125 9.5975 0.5625 8.875 C1.05156976 5.66111302 0.66231558 3.16439664 0 0 Z " fill="#B19B0C" transform="translate(279,241)"/>
<path d="M0 0 C0.99 0.495 0.99 0.495 2 1 C2 1.99 2 2.98 2 4 C2.66 4 3.32 4 4 4 C6.27678571 10.96428571 6.27678571 10.96428571 5 15 C4.16260219 12.8765984 3.33019717 10.7512272 2.5 8.625 C1.80390625 6.84996094 1.80390625 6.84996094 1.09375 5.0390625 C0 2 0 2 0 0 Z " fill="#B79C09" transform="translate(220,125)"/>
<path d="M0 0 C0.66 0.33 1.32 0.66 2 1 C1.07038578 2.15224028 0.1309875 3.29659176 -0.8125 4.4375 C-1.59560547 5.39462891 -1.59560547 5.39462891 -2.39453125 6.37109375 C-4 8 -4 8 -7 9 C-5.64978174 4.58110387 -3.73884332 2.65654657 0 0 Z " fill="#BEBDB9" transform="translate(309,288)"/>
<path d="M0 0 C4.83256305 0.41421969 6.82679218 2.46413986 10 6 C6.62972148 6 5.93297304 5.50175992 3.3125 3.5625 C2.68988281 3.11003906 2.06726563 2.65757812 1.42578125 2.19140625 C0.95527344 1.79824219 0.48476562 1.40507812 0 1 C0 0.67 0 0.34 0 0 Z " fill="#BCA40A" transform="translate(237,221)"/>
<path d="M0 0 C1.29221628 4.20893303 0.48195994 6.85051218 -1 11 C-2.625 13.4375 -2.625 13.4375 -4 15 C-3.43179252 9.54520815 -2.05362055 5.08940744 0 0 Z " fill="#957E07" transform="translate(163,209)"/>
<path d="M0 0 C1.59373901 2.39060851 2.65297076 4.30828179 3.6875 6.9375 C3.95949219 7.60652344 4.23148437 8.27554688 4.51171875 8.96484375 C5.0787676 11.32830338 4.76024003 12.7192799 4 15 C1.0554321 10.00703705 0.36504064 5.66442374 0 0 Z " fill="#9C8608" transform="translate(262,188)"/>
<path d="M0 0 C1.04005702 3.38018531 1.08004482 6.4780279 1 10 C0.01 10.33 -0.98 10.66 -2 11 C-1.125 3.375 -1.125 3.375 0 0 Z " fill="#A5900B" transform="translate(152,243)"/>
<path d="M0 0 C0.33 0.99 0.66 1.98 1 3 C2.65 2.34 4.3 1.68 6 1 C3.53846154 4.81538462 3.53846154 4.81538462 0.8125 5.75 C0.214375 5.8325 -0.38375 5.915 -1 6 C-0.67 4.02 -0.34 2.04 0 0 Z " fill="#9B8609" transform="translate(188,197)"/>
<path d="M0 0 C5.66153846 1.47692308 5.66153846 1.47692308 7.375 4.125 C7.684375 5.053125 7.684375 5.053125 8 6 C4.08597051 4.73058503 2.20927127 3.48832306 0 0 Z " fill="#B39D0A" transform="translate(155,161)"/>
</svg>
