<?xml version="1.0" encoding="UTF-8"?>
<svg version="1.1" xmlns="http://www.w3.org/2000/svg" width="1000" height="712">
<path d="M0 0 C2.48392692 1.94069092 4.85543209 3.96079669 7.21484375 6.05078125 C8.11847656 6.82292969 9.02210938 7.59507813 9.953125 8.390625 C15.62350233 13.35514623 20.52061475 18.55649791 25.14453125 24.5078125 C27.34393495 27.20934421 29.71627774 29.62621459 32.21484375 32.05078125 C32.9884021 31.54647583 32.9884021 31.54647583 33.77758789 31.03198242 C59.46249414 14.41001354 87.14581769 1.40657324 117.21484375 -4.94921875 C117.86130859 -5.09053223 118.50777344 -5.2318457 119.17382812 -5.37744141 C136.58502272 -9.17601496 156.37019958 -12.5103823 172.75 -3.53125 C196.05675166 11.42791707 204.67289835 40.59978572 210.45239258 66.13183594 C213.94660956 82.53797588 215.98484435 99.33119309 217.21484375 116.05078125 C217.8795166 116.14222412 218.54418945 116.23366699 219.22900391 116.32788086 C230.40870527 117.97535495 239.88230709 124.58827245 247.21484375 133.05078125 C259.63668316 151.89327425 258.79307363 175.15787534 254.7421875 196.54638672 C250.82955054 215.56252688 245.31934231 235.4436733 234.13671875 251.53125 C233.58588623 252.32837402 233.03505371 253.12549805 232.4675293 253.94677734 C231.36165377 255.52787744 230.23609446 257.09543538 229.08911133 258.64697266 C226.61511954 262.14801416 225.22927244 264.13971266 225.16015625 268.50390625 C226.7094336 273.7140686 228.51441224 278.78933739 230.42382812 283.87695312 C235.91021043 298.93784277 238.37124487 314.36937691 240.64477539 330.16625977 C241.00528002 332.65114108 241.37721279 335.13412386 241.75 337.6171875 C241.8532106 338.36206924 241.9564212 339.10695099 242.0627594 339.87440491 C242.78985826 344.69025847 244.01200799 348.69035186 246.21484375 353.05078125 C248.86608175 354.37640025 250.80208786 354.13007506 253.76953125 354.078125 C254.928479 354.06442871 256.08742676 354.05073242 257.28149414 354.03662109 C258.53824951 354.02066895 259.79500488 354.0047168 261.08984375 353.98828125 C271.52299435 353.921799 281.86398725 354.17490634 292.27734375 354.92578125 C293.39802246 355.0043335 294.51870117 355.08288574 295.67333984 355.16381836 C321.88551198 357.20472122 321.88551198 357.20472122 329.33984375 364.86328125 C331.21484375 368.05078125 331.21484375 368.05078125 331.52734375 371.67578125 C330.01827798 375.55623608 328.58166521 376.53579593 324.86465454 378.25454712 C319.19267879 379.95890303 313.24937214 379.50932096 307.3828125 379.40625 C305.94087405 379.39622401 304.49892088 379.38814688 303.05696106 379.38191223 C299.27486734 379.36107778 295.49341667 379.31710514 291.71160889 379.26715088 C285.67163279 379.1916412 279.63128203 379.15340235 273.5909977 379.1116581 C271.50008726 379.09420716 269.40944273 379.06802257 267.31864929 379.04008484 C259.8809458 378.96548304 252.60487965 379.18070933 245.21484375 380.05078125 C244.34709453 383.33856503 243.97051075 386.42088425 243.75 389.8203125 C243.67313965 390.94945068 243.5962793 392.07858887 243.51708984 393.24194336 C243.43797363 394.43698486 243.35885742 395.63202637 243.27734375 396.86328125 C242.75372056 404.44480436 242.19667122 411.96813432 241.08984375 419.48828125 C239.6401454 428.76590251 239.6401454 428.76590251 240.21484375 438.05078125 C243.42979203 441.17792123 246.42794242 441.65788522 250.7890625 442.26171875 C252.08851807 442.45169434 253.38797363 442.64166992 254.72680664 442.83740234 C255.75041794 442.98082062 255.75041794 442.98082062 256.79470825 443.12713623 C274.2685418 445.60312099 290.8975363 448.7810083 306.21484375 458.05078125 C307.63526196 460.89161766 307.52936647 462.90555403 307.21484375 466.05078125 C304.82802627 469.20479006 303.02268567 470.31794632 299.21484375 471.05078125 C287.96119847 471.96424895 276.68100778 471.03149979 265.52734375 469.55078125 C257.97886305 468.55890415 250.5212141 467.71424568 242.90234375 467.61328125 C242.17378174 467.59136719 241.44521973 467.56945312 240.69458008 467.546875 C237.5763299 467.5588726 235.66527335 467.69265146 233.18823242 469.66210938 C230.80840287 472.54275423 229.59796332 475.30338453 228.19140625 478.765625 C227.9227475 479.41721085 227.65408875 480.06879669 227.37728882 480.74012756 C226.52199059 482.81911131 225.68032831 484.90327022 224.83984375 486.98828125 C224.00718737 489.0323168 223.17160695 491.0751157 222.33392334 493.11709595 C221.78145183 494.46398646 221.23119104 495.81178592 220.6831665 497.16049194 C218.4464818 502.62083995 215.93854979 507.90912931 213.29443359 513.18579102 C212.10894738 516.33180656 212.01020457 518.71689365 212.21484375 522.05078125 C213.16822632 522.40740845 213.16822632 522.40740845 214.14086914 522.77124023 C218.31785467 524.50990922 222.34568385 526.51469221 226.3984375 528.5234375 C227.29039322 528.96537949 228.18234894 529.40732147 229.10133362 529.86265564 C230.99059784 530.80038218 232.87925086 531.739341 234.76733398 532.67944336 C236.67276083 533.6264326 238.57996035 534.56986438 240.48901367 535.50952148 C272.05111946 551.04513094 272.05111946 551.04513094 277.21484375 560.05078125 C278.11830447 564.52822628 277.96963768 568.60981102 275.83984375 572.67578125 C270.86632266 575.28095897 264.56616387 574.6817752 259.27734375 573.046875 C257.91576376 572.54709505 256.56183785 572.02613529 255.21484375 571.48828125 C254.44938232 571.19598633 253.6839209 570.90369141 252.89526367 570.60253906 C242.4714258 566.51879031 232.25917322 561.87225561 222.04492188 557.29467773 C220.96539497 556.81172493 220.96539497 556.81172493 219.86405945 556.3190155 C218.51488222 555.71457728 217.1666635 555.10799254 215.81965637 554.49873352 C205.43589474 549.74527478 205.43589474 549.74527478 194.21484375 549.05078125 C189.86391984 550.74870277 187.49073908 553.94131755 184.55078125 557.4140625 C175.94200184 567.13133023 166.54666766 576.18967468 156.21484375 584.05078125 C155.4966748 584.60233887 154.77850586 585.15389648 154.03857422 585.72216797 C148.14906662 590.23638825 142.20378774 594.66946712 136.21484375 599.05078125 C135.57595215 599.52161133 134.93706055 599.99244141 134.27880859 600.47753906 C85.02211903 636.39358719 20.453375 647.9400344 -38.72265625 655.30078125 C-40.50941772 655.52725342 -40.50941772 655.52725342 -42.33227539 655.75830078 C-66.91075404 658.66066523 -91.43084612 659.38206012 -116.14868164 659.31152344 C-120.15351898 659.30017829 -124.15808903 659.30690236 -128.16291714 659.31838512 C-159.90280462 659.39586328 -191.2720458 657.47889329 -222.84765625 654.23828125 C-224.78585739 654.04177979 -224.78585739 654.04177979 -226.76321411 653.84130859 C-246.54995402 651.82643944 -266.20493076 649.56715148 -285.78515625 646.05078125 C-287.54206787 645.75083252 -287.54206787 645.75083252 -289.33447266 645.44482422 C-350.98871651 634.77633402 -404.93787639 606.44642073 -454.10546875 568.6171875 C-455.66485838 567.42772149 -457.2247151 566.23886746 -458.78515625 565.05078125 C-459.77273926 564.28483643 -459.77273926 564.28483643 -460.78027344 563.50341797 C-464.12414433 560.98513851 -466.61535628 559.48000229 -470.78515625 559.05078125 C-473.17045457 559.60743975 -473.17045457 559.60743975 -475.49609375 560.6875 C-476.3684668 561.06438965 -477.24083984 561.4412793 -478.13964844 561.82958984 C-482.2852872 563.74325587 -486.36746445 565.74039393 -490.41015625 567.86328125 C-491.29896484 568.32903564 -492.18777344 568.79479004 -493.10351562 569.2746582 C-503.44055913 574.79378578 -513.29327768 581.08016472 -523.16552734 587.38134766 C-526.62768244 589.58770521 -530.1064562 591.76575452 -533.59765625 593.92578125 C-534.55285156 594.52132812 -535.50804687 595.116875 -536.4921875 595.73046875 C-540.66934899 598.13571676 -544.02080564 598.37935715 -548.78515625 598.05078125 C-553.38515625 595.85078125 -553.38515625 595.85078125 -554.78515625 593.05078125 C-555.51743518 588.6487863 -555.62986244 584.71022019 -553.57421875 580.671875 C-546.24294419 570.7763753 -535.83425713 564.640118 -525.36181641 558.55859375 C-522.20370009 556.71052417 -519.06265943 554.83432643 -515.921875 552.95703125 C-514.07691362 551.85613943 -512.23172681 550.75562656 -510.38644409 549.65527344 C-509.15552572 548.92089832 -507.92499352 548.18587555 -506.69485474 547.45019531 C-504.9506123 546.4079591 -503.20386578 545.36991714 -501.45703125 544.33203125 C-500.43706055 543.72423828 -499.41708984 543.11644531 -498.36621094 542.49023438 C-495.78515625 541.05078125 -495.78515625 541.05078125 -492.78515625 540.05078125 C-491.85125345 536.6309826 -491.27070751 534.34073312 -492.60498047 530.99511719 C-493.89580836 528.74125757 -495.27714644 526.58371591 -496.72265625 524.42578125 C-497.48002075 523.24435547 -497.48002075 523.24435547 -498.25268555 522.0390625 C-499.27354711 520.44684856 -500.30155976 518.85919537 -501.33691406 517.27636719 C-503.31580542 514.23530623 -505.20719665 511.14760417 -507.09765625 508.05078125 C-507.731875 507.03242187 -508.36609375 506.0140625 -509.01953125 504.96484375 C-510.18016196 503.04928952 -511.29670344 501.10619164 -512.36328125 499.13671875 C-514.6034862 495.04539707 -516.07976332 492.5119997 -520.03515625 489.92578125 C-529.55453883 487.70459198 -538.30447748 489.76630754 -547.66015625 491.98828125 C-548.86929688 492.26607422 -550.0784375 492.54386719 -551.32421875 492.83007812 C-557.1598173 494.16722024 -557.1598173 494.16722024 -562.96557617 495.6262207 C-565.718745 496.26861445 -568.40095099 496.26163621 -571.22265625 496.30078125 C-572.33511719 496.3265625 -573.44757813 496.35234375 -574.59375 496.37890625 C-579.08755197 495.9168752 -581.63714303 494.19879447 -584.78515625 491.05078125 C-585.30730656 486.35142846 -584.62575867 483.79808101 -581.78515625 480.05078125 C-579.35723391 478.51735661 -577.11200938 477.26379517 -574.53515625 476.05078125 C-573.4687793 475.53487427 -573.4687793 475.53487427 -572.38085938 475.00854492 C-565.37308455 471.70405943 -558.20191241 469.29094434 -550.78515625 467.05078125 C-548.58555865 466.37917873 -546.38691577 465.70467966 -544.18945312 465.02612305 C-542.78636423 464.59441562 -541.38147776 464.16849435 -539.97460938 463.74926758 C-536.85359083 462.79989176 -534.5257647 461.87785355 -531.78515625 460.05078125 C-531.0463596 453.85309827 -532.81885183 448.19518448 -534.41015625 442.23828125 C-536.1838292 435.44769318 -537.89910379 428.66235284 -539.37890625 421.80078125 C-539.63591309 420.62104736 -539.89291992 419.44131348 -540.15771484 418.22583008 C-540.6521728 415.93402866 -541.13464717 413.6396028 -541.60400391 411.3425293 C-541.8313623 410.30136963 -542.0587207 409.26020996 -542.29296875 408.1875 C-542.4852002 407.26670654 -542.67743164 406.34591309 -542.87548828 405.3972168 C-544.0384256 402.39748771 -544.90941298 401.50255251 -547.78515625 400.05078125 C-550.37532885 399.77346244 -552.6788416 399.67336408 -555.26171875 399.73828125 C-556.00459137 399.74811035 -556.74746399 399.75793945 -557.5128479 399.76806641 C-567.64561589 399.99283349 -577.70484024 401.21900133 -587.76855469 402.34179688 C-597.27857562 403.39093239 -606.75254489 404.26158538 -616.32421875 404.42578125 C-617.1172641 404.45172363 -617.91030945 404.47766602 -618.72738647 404.50439453 C-622.26306848 404.51597601 -624.36758057 404.34859475 -627.28271484 402.26953125 C-629.53025863 398.95044157 -629.47808988 395.8619162 -628.78515625 392.05078125 C-626.47613019 386.69803902 -622.96229828 384.48643417 -617.80444336 382.21655273 C-608.3300243 378.55840193 -598.17322388 377.66734116 -588.1484375 376.62109375 C-586.44654266 376.44265175 -586.44654266 376.44265175 -584.71026611 376.26060486 C-579.96123378 375.76827349 -575.21189772 375.28269699 -570.45922852 374.82666016 C-566.95734878 374.48701217 -563.45942606 374.11884899 -559.9609375 373.74609375 C-558.88290359 373.65006866 -557.80486969 373.55404358 -556.69416809 373.45510864 C-551.07336645 372.97380172 -551.07336645 372.97380172 -546.62353516 369.87597656 C-545.63606355 366.54836403 -545.31766079 363.62574 -545.1953125 360.15234375 C-545.13529078 358.78343492 -545.07497626 357.41453889 -545.0144043 356.0456543 C-544.97444839 354.97605972 -544.97444839 354.97605972 -544.9336853 353.88485718 C-544.36751198 339.34651441 -542.88516012 325.28945747 -539.78515625 311.05078125 C-539.53258057 309.85098633 -539.53258057 309.85098633 -539.27490234 308.62695312 C-534.04789087 284.27098401 -525.26861125 260.59062452 -514.78515625 238.05078125 C-514.36782227 237.14602051 -513.95048828 236.24125977 -513.52050781 235.30908203 C-506.47554829 220.06868666 -506.47554829 220.06868666 -504.03125 216.46484375 C-501.18872456 210.95800763 -503.11227401 204.81933157 -504.6484375 199.125 C-504.84108688 198.37853714 -505.03373627 197.63207428 -505.23222351 196.86299133 C-505.84606395 194.48592737 -506.47052844 192.11187161 -507.09765625 189.73828125 C-511.21978885 174.12384556 -515.07619259 158.25268607 -515.78515625 142.05078125 C-515.83397949 141.08374268 -515.83397949 141.08374268 -515.88378906 140.09716797 C-516.85603549 118.22162327 -513.4381065 95.89181807 -506.78515625 75.05078125 C-506.46490479 74.04047852 -506.46490479 74.04047852 -506.13818359 73.00976562 C-500.55192512 55.87134156 -491.62115283 40.11315351 -480.95532227 25.64086914 C-479.9225608 24.23749434 -478.93058326 22.80430218 -477.9453125 21.3671875 C-475.04951286 18.26192676 -471.89785914 16.67716479 -468.09765625 14.86328125 C-467.38085693 14.51450928 -466.66405762 14.1657373 -465.92553711 13.80639648 C-460.95856656 11.45368017 -456.27415568 9.68703069 -450.78515625 9.05078125 C-450.09808594 8.94378906 -449.41101563 8.83679688 -448.703125 8.7265625 C-446.39630246 8.40651685 -444.10869358 8.20912056 -441.78515625 8.05078125 C-440.89957031 7.98503906 -440.01398438 7.91929688 -439.1015625 7.8515625 C-394.86723095 6.18342776 -344.50309082 29.62256118 -305.8425293 48.72924805 C-295.12012228 53.9641797 -285.11582436 51.94707423 -273.78515625 49.73828125 C-264.33145578 47.97207494 -254.90006905 46.42446517 -245.34765625 45.30078125 C-244.37376953 45.18565186 -243.39988281 45.07052246 -242.39648438 44.9519043 C-214.15791906 41.75986551 -185.7209852 41.90015721 -157.34454346 41.9821167 C-153.31368564 41.99259293 -149.2828208 41.99696472 -145.25195312 42.00195312 C-137.4296694 42.01248173 -129.60741869 42.02940431 -121.78515625 42.05078125 C-121.4805246 41.26352661 -121.17589294 40.47627197 -120.86203003 39.66516113 C-119.84996411 37.20811851 -118.83371071 35.56227852 -117.16796875 33.51953125 C-116.64968506 32.88023682 -116.13140137 32.24094238 -115.59741211 31.58227539 C-115.04061768 30.91188232 -114.48382324 30.24148926 -113.91015625 29.55078125 C-113.33080322 28.84880615 -112.7514502 28.14683105 -112.15454102 27.42358398 C-83.67237794 -6.81466427 -41.12873276 -28.78434453 0 0 Z " fill="#FEFEFE" transform="translate(648.78515625,32.94921875)"/>
<path d="M0 0 C2.48392692 1.94069092 4.85543209 3.96079669 7.21484375 6.05078125 C8.11847656 6.82292969 9.02210938 7.59507813 9.953125 8.390625 C15.62350233 13.35514623 20.52061475 18.55649791 25.14453125 24.5078125 C27.34393495 27.20934421 29.71627774 29.62621459 32.21484375 32.05078125 C32.9884021 31.54647583 32.9884021 31.54647583 33.77758789 31.03198242 C59.46249414 14.41001354 87.14581769 1.40657324 117.21484375 -4.94921875 C117.86130859 -5.09053223 118.50777344 -5.2318457 119.17382812 -5.37744141 C136.58502272 -9.17601496 156.37019958 -12.5103823 172.75 -3.53125 C196.05675166 11.42791707 204.67289835 40.59978572 210.45239258 66.13183594 C213.94660956 82.53797588 215.98484435 99.33119309 217.21484375 116.05078125 C217.8795166 116.14222412 218.54418945 116.23366699 219.22900391 116.32788086 C230.40870527 117.97535495 239.88230709 124.58827245 247.21484375 133.05078125 C259.63668316 151.89327425 258.79307363 175.15787534 254.7421875 196.54638672 C250.82955054 215.56252688 245.31934231 235.4436733 234.13671875 251.53125 C233.58588623 252.32837402 233.03505371 253.12549805 232.4675293 253.94677734 C231.36165377 255.52787744 230.23609446 257.09543538 229.08911133 258.64697266 C226.61511954 262.14801416 225.22927244 264.13971266 225.16015625 268.50390625 C226.7094336 273.7140686 228.51441224 278.78933739 230.42382812 283.87695312 C235.91021043 298.93784277 238.37124487 314.36937691 240.64477539 330.16625977 C241.00528002 332.65114108 241.37721279 335.13412386 241.75 337.6171875 C241.8532106 338.36206924 241.9564212 339.10695099 242.0627594 339.87440491 C242.78985826 344.69025847 244.01200799 348.69035186 246.21484375 353.05078125 C248.86608175 354.37640025 250.80208786 354.13007506 253.76953125 354.078125 C254.928479 354.06442871 256.08742676 354.05073242 257.28149414 354.03662109 C258.53824951 354.02066895 259.79500488 354.0047168 261.08984375 353.98828125 C271.52299435 353.921799 281.86398725 354.17490634 292.27734375 354.92578125 C293.39802246 355.0043335 294.51870117 355.08288574 295.67333984 355.16381836 C321.88551198 357.20472122 321.88551198 357.20472122 329.33984375 364.86328125 C331.21484375 368.05078125 331.21484375 368.05078125 331.52734375 371.67578125 C330.01827798 375.55623608 328.58166521 376.53579593 324.86465454 378.25454712 C319.19267879 379.95890303 313.24937214 379.50932096 307.3828125 379.40625 C305.94087405 379.39622401 304.49892088 379.38814688 303.05696106 379.38191223 C299.27486734 379.36107778 295.49341667 379.31710514 291.71160889 379.26715088 C285.67163279 379.1916412 279.63128203 379.15340235 273.5909977 379.1116581 C271.50008726 379.09420716 269.40944273 379.06802257 267.31864929 379.04008484 C259.8809458 378.96548304 252.60487965 379.18070933 245.21484375 380.05078125 C244.34709453 383.33856503 243.97051075 386.42088425 243.75 389.8203125 C243.67313965 390.94945068 243.5962793 392.07858887 243.51708984 393.24194336 C243.43797363 394.43698486 243.35885742 395.63202637 243.27734375 396.86328125 C242.75372056 404.44480436 242.19667122 411.96813432 241.08984375 419.48828125 C239.6401454 428.76590251 239.6401454 428.76590251 240.21484375 438.05078125 C243.42979203 441.17792123 246.42794242 441.65788522 250.7890625 442.26171875 C252.08851807 442.45169434 253.38797363 442.64166992 254.72680664 442.83740234 C255.75041794 442.98082062 255.75041794 442.98082062 256.79470825 443.12713623 C274.2685418 445.60312099 290.8975363 448.7810083 306.21484375 458.05078125 C307.63526196 460.89161766 307.52936647 462.90555403 307.21484375 466.05078125 C304.82802627 469.20479006 303.02268567 470.31794632 299.21484375 471.05078125 C287.96119847 471.96424895 276.68100778 471.03149979 265.52734375 469.55078125 C257.97886305 468.55890415 250.5212141 467.71424568 242.90234375 467.61328125 C242.17378174 467.59136719 241.44521973 467.56945312 240.69458008 467.546875 C237.5763299 467.5588726 235.66527335 467.69265146 233.18823242 469.66210938 C230.80840287 472.54275423 229.59796332 475.30338453 228.19140625 478.765625 C227.9227475 479.41721085 227.65408875 480.06879669 227.37728882 480.74012756 C226.52199059 482.81911131 225.68032831 484.90327022 224.83984375 486.98828125 C224.00718737 489.0323168 223.17160695 491.0751157 222.33392334 493.11709595 C221.78145183 494.46398646 221.23119104 495.81178592 220.6831665 497.16049194 C218.4464818 502.62083995 215.93854979 507.90912931 213.29443359 513.18579102 C212.10894738 516.33180656 212.01020457 518.71689365 212.21484375 522.05078125 C213.16822632 522.40740845 213.16822632 522.40740845 214.14086914 522.77124023 C218.31785467 524.50990922 222.34568385 526.51469221 226.3984375 528.5234375 C227.29039322 528.96537949 228.18234894 529.40732147 229.10133362 529.86265564 C230.99059784 530.80038218 232.87925086 531.739341 234.76733398 532.67944336 C236.67276083 533.6264326 238.57996035 534.56986438 240.48901367 535.50952148 C272.05111946 551.04513094 272.05111946 551.04513094 277.21484375 560.05078125 C278.11830447 564.52822628 277.96963768 568.60981102 275.83984375 572.67578125 C270.86632266 575.28095897 264.56616387 574.6817752 259.27734375 573.046875 C257.91576376 572.54709505 256.56183785 572.02613529 255.21484375 571.48828125 C254.44938232 571.19598633 253.6839209 570.90369141 252.89526367 570.60253906 C242.4714258 566.51879031 232.25917322 561.87225561 222.04492188 557.29467773 C220.96539497 556.81172493 220.96539497 556.81172493 219.86405945 556.3190155 C218.51488222 555.71457728 217.1666635 555.10799254 215.81965637 554.49873352 C205.43589474 549.74527478 205.43589474 549.74527478 194.21484375 549.05078125 C189.86391984 550.74870277 187.49073908 553.94131755 184.55078125 557.4140625 C175.94200184 567.13133023 166.54666766 576.18967468 156.21484375 584.05078125 C155.4966748 584.60233887 154.77850586 585.15389648 154.03857422 585.72216797 C148.14906662 590.23638825 142.20378774 594.66946712 136.21484375 599.05078125 C135.57595215 599.52161133 134.93706055 599.99244141 134.27880859 600.47753906 C85.02211903 636.39358719 20.453375 647.9400344 -38.72265625 655.30078125 C-40.50941772 655.52725342 -40.50941772 655.52725342 -42.33227539 655.75830078 C-66.91075404 658.66066523 -91.43084612 659.38206012 -116.14868164 659.31152344 C-120.15351898 659.30017829 -124.15808903 659.30690236 -128.16291714 659.31838512 C-159.90280462 659.39586328 -191.2720458 657.47889329 -222.84765625 654.23828125 C-224.78585739 654.04177979 -224.78585739 654.04177979 -226.76321411 653.84130859 C-246.54995402 651.82643944 -266.20493076 649.56715148 -285.78515625 646.05078125 C-287.54206787 645.75083252 -287.54206787 645.75083252 -289.33447266 645.44482422 C-350.98871651 634.77633402 -404.93787639 606.44642073 -454.10546875 568.6171875 C-455.66485838 567.42772149 -457.2247151 566.23886746 -458.78515625 565.05078125 C-459.77273926 564.28483643 -459.77273926 564.28483643 -460.78027344 563.50341797 C-464.12414433 560.98513851 -466.61535628 559.48000229 -470.78515625 559.05078125 C-473.17045457 559.60743975 -473.17045457 559.60743975 -475.49609375 560.6875 C-476.3684668 561.06438965 -477.24083984 561.4412793 -478.13964844 561.82958984 C-482.2852872 563.74325587 -486.36746445 565.74039393 -490.41015625 567.86328125 C-491.29896484 568.32903564 -492.18777344 568.79479004 -493.10351562 569.2746582 C-503.44055913 574.79378578 -513.29327768 581.08016472 -523.16552734 587.38134766 C-526.62768244 589.58770521 -530.1064562 591.76575452 -533.59765625 593.92578125 C-534.55285156 594.52132812 -535.50804687 595.116875 -536.4921875 595.73046875 C-540.66934899 598.13571676 -544.02080564 598.37935715 -548.78515625 598.05078125 C-553.38515625 595.85078125 -553.38515625 595.85078125 -554.78515625 593.05078125 C-555.51743518 588.6487863 -555.62986244 584.71022019 -553.57421875 580.671875 C-546.24294419 570.7763753 -535.83425713 564.640118 -525.36181641 558.55859375 C-522.20370009 556.71052417 -519.06265943 554.83432643 -515.921875 552.95703125 C-514.07691362 551.85613943 -512.23172681 550.75562656 -510.38644409 549.65527344 C-509.15552572 548.92089832 -507.92499352 548.18587555 -506.69485474 547.45019531 C-504.9506123 546.4079591 -503.20386578 545.36991714 -501.45703125 544.33203125 C-500.43706055 543.72423828 -499.41708984 543.11644531 -498.36621094 542.49023438 C-495.78515625 541.05078125 -495.78515625 541.05078125 -492.78515625 540.05078125 C-491.85125345 536.6309826 -491.27070751 534.34073312 -492.60498047 530.99511719 C-493.89580836 528.74125757 -495.27714644 526.58371591 -496.72265625 524.42578125 C-497.48002075 523.24435547 -497.48002075 523.24435547 -498.25268555 522.0390625 C-499.27354711 520.44684856 -500.30155976 518.85919537 -501.33691406 517.27636719 C-503.31580542 514.23530623 -505.20719665 511.14760417 -507.09765625 508.05078125 C-507.731875 507.03242187 -508.36609375 506.0140625 -509.01953125 504.96484375 C-510.18016196 503.04928952 -511.29670344 501.10619164 -512.36328125 499.13671875 C-514.6034862 495.04539707 -516.07976332 492.5119997 -520.03515625 489.92578125 C-529.55453883 487.70459198 -538.30447748 489.76630754 -547.66015625 491.98828125 C-548.86929688 492.26607422 -550.0784375 492.54386719 -551.32421875 492.83007812 C-557.1598173 494.16722024 -557.1598173 494.16722024 -562.96557617 495.6262207 C-565.718745 496.26861445 -568.40095099 496.26163621 -571.22265625 496.30078125 C-572.33511719 496.3265625 -573.44757813 496.35234375 -574.59375 496.37890625 C-579.08755197 495.9168752 -581.63714303 494.19879447 -584.78515625 491.05078125 C-585.30730656 486.35142846 -584.62575867 483.79808101 -581.78515625 480.05078125 C-579.35723391 478.51735661 -577.11200938 477.26379517 -574.53515625 476.05078125 C-573.4687793 475.53487427 -573.4687793 475.53487427 -572.38085938 475.00854492 C-565.37308455 471.70405943 -558.20191241 469.29094434 -550.78515625 467.05078125 C-548.58555865 466.37917873 -546.38691577 465.70467966 -544.18945312 465.02612305 C-542.78636423 464.59441562 -541.38147776 464.16849435 -539.97460938 463.74926758 C-536.85359083 462.79989176 -534.5257647 461.87785355 -531.78515625 460.05078125 C-531.0463596 453.85309827 -532.81885183 448.19518448 -534.41015625 442.23828125 C-536.1838292 435.44769318 -537.89910379 428.66235284 -539.37890625 421.80078125 C-539.63591309 420.62104736 -539.89291992 419.44131348 -540.15771484 418.22583008 C-540.6521728 415.93402866 -541.13464717 413.6396028 -541.60400391 411.3425293 C-541.8313623 410.30136963 -542.0587207 409.26020996 -542.29296875 408.1875 C-542.4852002 407.26670654 -542.67743164 406.34591309 -542.87548828 405.3972168 C-544.0384256 402.39748771 -544.90941298 401.50255251 -547.78515625 400.05078125 C-550.37532885 399.77346244 -552.6788416 399.67336408 -555.26171875 399.73828125 C-556.00459137 399.74811035 -556.74746399 399.75793945 -557.5128479 399.76806641 C-567.64561589 399.99283349 -577.70484024 401.21900133 -587.76855469 402.34179688 C-597.27857562 403.39093239 -606.75254489 404.26158538 -616.32421875 404.42578125 C-617.1172641 404.45172363 -617.91030945 404.47766602 -618.72738647 404.50439453 C-622.26306848 404.51597601 -624.36758057 404.34859475 -627.28271484 402.26953125 C-629.53025863 398.95044157 -629.47808988 395.8619162 -628.78515625 392.05078125 C-626.47613019 386.69803902 -622.96229828 384.48643417 -617.80444336 382.21655273 C-608.3300243 378.55840193 -598.17322388 377.66734116 -588.1484375 376.62109375 C-586.44654266 376.44265175 -586.44654266 376.44265175 -584.71026611 376.26060486 C-579.96123378 375.76827349 -575.21189772 375.28269699 -570.45922852 374.82666016 C-566.95734878 374.48701217 -563.45942606 374.11884899 -559.9609375 373.74609375 C-558.88290359 373.65006866 -557.80486969 373.55404358 -556.69416809 373.45510864 C-551.07336645 372.97380172 -551.07336645 372.97380172 -546.62353516 369.87597656 C-545.63606355 366.54836403 -545.31766079 363.62574 -545.1953125 360.15234375 C-545.13529078 358.78343492 -545.07497626 357.41453889 -545.0144043 356.0456543 C-544.97444839 354.97605972 -544.97444839 354.97605972 -544.9336853 353.88485718 C-544.36751198 339.34651441 -542.88516012 325.28945747 -539.78515625 311.05078125 C-539.53258057 309.85098633 -539.53258057 309.85098633 -539.27490234 308.62695312 C-534.04789087 284.27098401 -525.26861125 260.59062452 -514.78515625 238.05078125 C-514.36782227 237.14602051 -513.95048828 236.24125977 -513.52050781 235.30908203 C-506.47554829 220.06868666 -506.47554829 220.06868666 -504.03125 216.46484375 C-501.18872456 210.95800763 -503.11227401 204.81933157 -504.6484375 199.125 C-504.84108688 198.37853714 -505.03373627 197.63207428 -505.23222351 196.86299133 C-505.84606395 194.48592737 -506.47052844 192.11187161 -507.09765625 189.73828125 C-511.21978885 174.12384556 -515.07619259 158.25268607 -515.78515625 142.05078125 C-515.83397949 141.08374268 -515.83397949 141.08374268 -515.88378906 140.09716797 C-516.85603549 118.22162327 -513.4381065 95.89181807 -506.78515625 75.05078125 C-506.46490479 74.04047852 -506.46490479 74.04047852 -506.13818359 73.00976562 C-500.55192512 55.87134156 -491.62115283 40.11315351 -480.95532227 25.64086914 C-479.9225608 24.23749434 -478.93058326 22.80430218 -477.9453125 21.3671875 C-475.04951286 18.26192676 -471.89785914 16.67716479 -468.09765625 14.86328125 C-467.38085693 14.51450928 -466.66405762 14.1657373 -465.92553711 13.80639648 C-460.95856656 11.45368017 -456.27415568 9.68703069 -450.78515625 9.05078125 C-450.09808594 8.94378906 -449.41101563 8.83679688 -448.703125 8.7265625 C-446.39630246 8.40651685 -444.10869358 8.20912056 -441.78515625 8.05078125 C-440.89957031 7.98503906 -440.01398438 7.91929688 -439.1015625 7.8515625 C-394.86723095 6.18342776 -344.50309082 29.62256118 -305.8425293 48.72924805 C-295.12012228 53.9641797 -285.11582436 51.94707423 -273.78515625 49.73828125 C-264.33145578 47.97207494 -254.90006905 46.42446517 -245.34765625 45.30078125 C-244.37376953 45.18565186 -243.39988281 45.07052246 -242.39648438 44.9519043 C-214.15791906 41.75986551 -185.7209852 41.90015721 -157.34454346 41.9821167 C-153.31368564 41.99259293 -149.2828208 41.99696472 -145.25195312 42.00195312 C-137.4296694 42.01248173 -129.60741869 42.02940431 -121.78515625 42.05078125 C-121.4805246 41.26352661 -121.17589294 40.47627197 -120.86203003 39.66516113 C-119.84996411 37.20811851 -118.83371071 35.56227852 -117.16796875 33.51953125 C-116.64968506 32.88023682 -116.13140137 32.24094238 -115.59741211 31.58227539 C-115.04061768 30.91188232 -114.48382324 30.24148926 -113.91015625 29.55078125 C-113.33080322 28.84880615 -112.7514502 28.14683105 -112.15454102 27.42358398 C-83.67237794 -6.81466427 -41.12873276 -28.78434453 0 0 Z M-462.22265625 52.05078125 C-482.33842355 79.35705309 -491.43976798 118.28646196 -486.35009766 151.92626953 C-484.54927657 161.1206139 -481.77967182 169.58185693 -477.78515625 178.05078125 C-472.47647135 177.4690328 -472.47647135 177.4690328 -467.78515625 175.05078125 C-463.31269768 174.40865865 -459.20173244 174.30876515 -455.16015625 176.42578125 C-453.00745346 180.53548658 -452.93510244 184.5254948 -453.78515625 189.05078125 C-456.74297365 195.99199092 -461.02034091 201.82277975 -465.41015625 207.92578125 C-472.27281116 217.62652212 -478.37765753 227.47566018 -483.78515625 238.05078125 C-484.49454346 239.41904053 -484.49454346 239.41904053 -485.21826172 240.81494141 C-503.35541622 276.310708 -522.02870624 330.39396361 -515.78515625 371.05078125 C-513.54639023 374.0483573 -512.14532803 374.95785437 -508.4921875 375.90039062 C-507.20699219 376.06345703 -505.92179687 376.22652344 -504.59765625 376.39453125 C-503.89930664 376.49036499 -503.20095703 376.58619873 -502.48144531 376.68493652 C-500.25113302 376.98955546 -498.01884813 377.2721131 -495.78515625 377.55078125 C-470.70542107 380.7403354 -470.70542107 380.7403354 -463.97265625 386.42578125 C-462.43805313 389.81806183 -462.63884986 391.53544164 -463.78515625 395.05078125 C-465.70247146 397.57815129 -466.70021034 398.02246595 -469.78515625 399.05078125 C-472.70012113 399.10039298 -475.5905921 399.09423055 -478.50390625 399.04296875 C-480.25780675 399.02545621 -482.01171337 399.00854757 -483.765625 398.9921875 C-486.53093294 398.96118298 -489.29593704 398.9256011 -492.06103516 398.87939453 C-494.72953128 398.83712791 -497.39766737 398.81363836 -500.06640625 398.79296875 C-500.89458862 398.77434784 -501.722771 398.75572693 -502.5760498 398.73654175 C-506.83417239 398.58270167 -506.83417239 398.58270167 -510.50231934 400.42166138 C-513.3867012 404.08463971 -512.13901604 409.66193687 -511.78515625 414.05078125 C-510.62647702 422.59604058 -508.39393496 430.7701627 -505.84765625 438.98828125 C-505.60708496 439.76888916 -505.36651367 440.54949707 -505.11865234 441.35375977 C-503.45096338 446.53665376 -501.32280486 451.23308551 -498.78515625 456.05078125 C-497.71555664 456.0350708 -496.64595703 456.01936035 -495.54394531 456.00317383 C-491.5707148 455.94882074 -487.59751709 455.91441174 -483.62402344 455.88598633 C-481.9052172 455.87091192 -480.18644934 455.85044896 -478.46777344 455.82446289 C-475.99534628 455.7880196 -473.52342825 455.77104167 -471.05078125 455.7578125 C-470.28397034 455.74232864 -469.51715942 455.72684479 -468.72711182 455.71089172 C-465.51546564 455.7098816 -463.16823249 455.85078961 -460.29589844 457.3503418 C-458.78515625 459.05078125 -458.78515625 459.05078125 -458.34765625 462.55078125 C-458.78515625 466.05078125 -458.78515625 466.05078125 -459.97045898 467.64624023 C-462.28868959 469.44050644 -464.4615078 470.14560028 -467.2578125 471.0234375 C-468.32193359 471.36568359 -469.38605469 471.70792969 -470.48242188 472.06054688 C-472.14821289 472.58165039 -472.14821289 472.58165039 -473.84765625 473.11328125 C-476.04860227 473.80704388 -478.24791639 474.50601176 -480.4453125 475.2109375 C-481.42121338 475.51652588 -482.39711426 475.82211426 -483.40258789 476.13696289 C-485.92456467 476.9188617 -485.92456467 476.9188617 -487.78515625 479.05078125 C-488.92558444 490.4138429 -479.3891724 500.84550479 -473.09765625 509.67578125 C-472.27841675 510.83074097 -472.27841675 510.83074097 -471.44262695 512.0090332 C-466.04251215 519.56182379 -466.04251215 519.56182379 -457.89453125 523.359375 C-450.68712068 523.75315737 -445.28126543 521.4597105 -438.88671875 518.4609375 C-434.19094425 516.3259569 -430.45353297 515.85089496 -425.28515625 515.73828125 C-424.16109375 515.70089844 -423.03703125 515.66351562 -421.87890625 515.625 C-418.78515625 516.05078125 -418.78515625 516.05078125 -416.42578125 517.828125 C-414.44668988 520.50932259 -413.96309306 522.70746294 -414.16015625 526.0390625 C-415.45634009 530.21115422 -419.19554535 531.93956633 -422.78515625 534.05078125 C-423.81898438 534.66308594 -424.8528125 535.27539062 -425.91796875 535.90625 C-428.0174159 537.13303538 -430.12634047 538.34380124 -432.24609375 539.53515625 C-434.84144277 540.94391252 -434.84144277 540.94391252 -436.78515625 543.05078125 C-436.56741549 545.50757169 -436.13077307 546.70305627 -434.38427734 548.46020508 C-433.78180176 548.88841553 -433.17932617 549.31662598 -432.55859375 549.7578125 C-431.86813965 550.25442383 -431.17768555 550.75103516 -430.46630859 551.26269531 C-429.70527832 551.79088867 -428.94424805 552.31908203 -428.16015625 552.86328125 C-427.36689941 553.42370117 -426.57364258 553.98412109 -425.75634766 554.56152344 C-393.6208878 577.06687343 -360.07509726 596.32697414 -321.89208984 606.47753906 C-319.30321956 607.18190377 -316.72645176 607.92485667 -314.1484375 608.66796875 C-256.51461022 625.21714276 -197.23524061 629.6476514 -137.48803711 629.44189453 C-132.46255406 629.42474585 -127.43754606 629.43502646 -122.41207886 629.45222282 C-79.97758568 629.57501205 -36.92691118 627.48774986 4.49902344 617.66113281 C7.2106912 617.05171449 9.92471572 616.53384516 12.66015625 616.04296875 C38.87988404 611.2523219 65.16399998 602.52897429 89.21484375 591.05078125 C89.92785645 590.71626953 90.64086914 590.38175781 91.37548828 590.03710938 C101.35966403 585.32841514 110.9120469 579.99014977 120.21484375 574.05078125 C120.87516602 573.62925781 121.53548828 573.20773437 122.21582031 572.7734375 C132.1108009 566.38223777 140.82592977 559.30691256 149.21484375 551.05078125 C150.04371094 550.24898437 150.87257813 549.4471875 151.7265625 548.62109375 C156.9687857 543.87515505 156.9687857 543.87515505 159.6015625 537.5625 C159.45640695 534.93444953 159.45640695 534.93444953 157.421875 533.3203125 C156.63167969 532.83949219 155.84148438 532.35867188 155.02734375 531.86328125 C154.25003906 531.37472656 153.47273437 530.88617187 152.671875 530.3828125 C150.22309433 528.98631695 150.22309433 528.98631695 147.49609375 528.0078125 C145.21484375 527.05078125 145.21484375 527.05078125 143.90234375 524.92578125 C142.94528032 520.923516 142.68961244 518.18697779 143.21484375 514.05078125 C146.32966428 510.85609353 149.04262261 509.80931188 153.40234375 509.61328125 C158.02620272 509.80821628 162.21622699 511.07684842 166.63671875 512.3671875 C170.00239121 513.25960065 172.76039194 513.5344045 176.21484375 513.05078125 C181.96919167 509.7045554 184.26343794 503.96782953 187.15234375 498.23828125 C187.67868408 497.20888428 188.20502441 496.1794873 188.74731445 495.11889648 C196.52611425 479.73984891 196.52611425 479.73984891 200.21484375 463.05078125 C195.9417374 459.28916892 191.0331888 458.54707826 185.625 457.2109375 C182.0322376 455.98865751 179.91465522 454.69610111 177.21484375 452.05078125 C176.08984375 448.61328125 176.08984375 448.61328125 176.21484375 445.05078125 C177.96875 442.3671875 177.96875 442.3671875 181.21484375 440.05078125 C185.23321116 439.3638066 189.20850335 439.39676991 193.27734375 439.42578125 C195.43493512 439.42578125 197.59257202 439.41327171 199.75 439.38671875 C200.70269775 439.3923584 201.65539551 439.39799805 202.63696289 439.40380859 C205.78797786 438.97229352 207.04563642 438.38147704 209.21484375 436.05078125 C210.22668474 433.0803237 210.22668474 433.0803237 210.69921875 429.609375 C210.91247803 428.3109668 211.1257373 427.01255859 211.34545898 425.67480469 C211.55350187 424.27953174 211.75993591 422.88401805 211.96484375 421.48828125 C212.07257111 420.78981079 212.18029846 420.09134033 212.29129028 419.3717041 C216.04047653 401.14486822 216.04047653 401.14486822 212.21484375 384.05078125 C204.25421759 382.89808193 195.80396197 384.43419357 187.90234375 385.55078125 C170.78678467 387.92408176 170.78678467 387.92408176 165.83984375 385.17578125 C162.56971105 382.52853097 162.31154128 381.90494274 161.83984375 377.73828125 C162.3195974 373.02070365 163.61232024 372.0310065 167.21484375 369.05078125 C170.2890625 367.86328125 170.2890625 367.86328125 173.90234375 367.05078125 C174.90068237 366.81669556 174.90068237 366.81669556 175.91918945 366.57788086 C180.5444334 365.528111 185.20037573 364.68773691 189.87109375 363.8671875 C191.60999878 363.55491211 191.60999878 363.55491211 193.3840332 363.23632812 C195.69952594 362.82628458 198.01845494 362.43512191 200.34057617 362.06445312 C206.92524129 361.04784557 206.92524129 361.04784557 212.48828125 357.66796875 C214.37226818 354.81215145 214.74181988 353.9154922 214.15234375 350.61328125 C214.01183594 349.73027344 213.87132812 348.84726562 213.7265625 347.9375 C213.55769531 346.98488281 213.38882813 346.03226562 213.21484375 345.05078125 C213.03888672 343.60638672 213.03888672 343.60638672 212.859375 342.1328125 C210.76682129 325.12304423 207.26101978 308.10530823 201.21484375 292.05078125 C197.8395513 293.2952369 195.07157715 294.70838274 192.15234375 296.80078125 C175.06366384 308.40071298 156.23414891 313.44444601 135.65234375 310.42578125 C113.81227296 305.73421049 96.28274715 290.5776013 84.25390625 272.359375 C79.63711522 264.86814512 75.43592972 257.61322863 73.21484375 249.05078125 C72.10302734 249.26734375 72.10302734 249.26734375 70.96875 249.48828125 C48.03394339 253.53064618 27.01874225 250.34995438 7.49609375 237.22265625 C5.324382 235.57156033 3.26463424 233.84999615 1.21484375 232.05078125 C0.17263672 231.20386719 0.17263672 231.20386719 -0.890625 230.33984375 C-5.63809365 226.40291853 -9.30092376 222.13195364 -12.78515625 217.05078125 C-16.13206279 217.75862034 -19.02101894 219.00705344 -22.1328125 220.4140625 C-29.01047237 223.31513517 -35.91322142 224.83336092 -43.22265625 226.23828125 C-45.05280273 226.60856445 -45.05280273 226.60856445 -46.91992188 226.98632812 C-73.9416776 232.37344051 -99.08359051 233.98825314 -123.62890625 219.35546875 C-126.11487385 217.68567726 -128.45923375 215.93587006 -130.78515625 214.05078125 C-131.39617187 213.56480469 -132.0071875 213.07882813 -132.63671875 212.578125 C-145.88763342 200.74911214 -154.67572955 178.47886621 -155.78515625 161.05078125 C-157.44163126 131.72550498 -149.86904651 103.38430078 -139.78515625 76.05078125 C-170.47686689 75.88172231 -170.47686689 75.88172231 -201.16015625 76.48828125 C-202.36816895 76.52751709 -203.57618164 76.56675293 -204.82080078 76.60717773 C-210.77719975 76.81535663 -210.77719975 76.81535663 -216.68481445 77.54150391 C-220.13092988 78.10757972 -223.50487095 78.33093986 -226.9921875 78.515625 C-228.3893356 78.59270667 -229.78647057 78.67002658 -231.18359375 78.74755859 C-232.26592285 78.80614044 -232.26592285 78.80614044 -233.37011719 78.86590576 C-254.88928947 79.81900475 -254.88928947 79.81900475 -276.02368164 83.62060547 C-292.04312958 87.7833554 -304.64927608 87.86602494 -319.17578125 79.49804688 C-324.84471792 76.35382377 -330.70362633 73.5658853 -336.53515625 70.73828125 C-337.20220581 70.41407196 -337.86925537 70.08986267 -338.55651855 69.75582886 C-367.95540771 55.51328635 -401.27351317 40.93217631 -434.47265625 40.61328125 C-435.67474731 40.59793335 -435.67474731 40.59793335 -436.90112305 40.58227539 C-447.03879195 40.73396385 -455.73199294 44.07777133 -462.22265625 52.05078125 Z " fill="#010001" transform="translate(648.78515625,32.94921875)"/>
<path d="M0 0 C20.89338627 14.85270775 33.63962945 35.17556607 43.1875 58.6875 C43.5182251 59.49638672 43.8489502 60.30527344 44.18969727 61.13867188 C46.12167065 66.10852469 47.11348802 70.62216899 47.5625 75.9375 C45.37975275 76.91255943 43.1956478 77.88404854 41.0078125 78.84765625 C39.53590055 79.50366812 38.07002179 80.17384998 36.6171875 80.87109375 C32.70147393 82.70603576 29.84098323 83.79319665 25.5625 82.9375 C24.14830066 81.92776167 22.7775448 80.85626 21.4375 79.75 C9.63518204 70.18370604 -2.75812353 69.50236543 -17.4375 70.9375 C-29.15782796 73.13183453 -38.57617407 81.47514855 -45.4375 90.9375 C-51.88816827 102.7343797 -54.4314085 117.21302015 -50.74462891 130.41943359 C-48.86321927 135.28608267 -46.31603941 139.59867965 -43.4375 143.9375 C-42.93734375 144.69289062 -42.4371875 145.44828125 -41.921875 146.2265625 C-36.27163733 153.59784957 -28.38811951 157.95931963 -19.5703125 160.28125 C-16.53752873 161.21441424 -15.1652073 162.27395125 -13.4375 164.9375 C-11.61967402 170.39097795 -10.95169946 175.20505367 -11.4375 180.9375 C-14.87994285 185.78767721 -22.03436224 186.45814501 -27.4375 187.9375 C-28.19417969 188.14503906 -28.95085937 188.35257813 -29.73046875 188.56640625 C-52.42495302 194.14126022 -78.41130116 195.14453442 -99.375 183.8671875 C-110.14097792 177.08352284 -115.65308454 163.71123699 -119.4375 151.9375 C-123.10533803 132.93790477 -120.3383063 113.40570345 -115.4375 94.9375 C-115.19644531 93.98955566 -114.95539062 93.04161133 -114.70703125 92.06494141 C-106.62204582 60.76770615 -90.51418313 34.21586883 -68.4375 10.9375 C-67.84582031 10.26976563 -67.25414062 9.60203125 -66.64453125 8.9140625 C-49.01020929 -10.33129628 -21.52269767 -14.16234116 0 0 Z " fill="#E52134" transform="translate(634.4375,50.0625)"/>
<path d="M0 0 C2.22665163 0.00316736 4.45197696 -0.0204506 6.6784668 -0.0456543 C21.32683644 -0.11055973 37.04096166 0.89487294 48.66870117 10.75317383 C58.88937755 23.0781071 56.62251086 38.82044332 55.60766602 54.12036133 C52.69131259 83.48584268 36.78744582 108.80814 18.79370117 131.31567383 C18.22393555 132.06461914 17.65416992 132.81356445 17.06713867 133.58520508 C6.44510029 146.84967173 -11.32468039 155.51286624 -27.91333008 157.66723633 C-41.75998024 158.43762096 -54.06576541 151.06528877 -64.37817383 142.51489258 C-72.04843085 135.35087252 -83.17566126 122.57382039 -84.51489258 111.84301758 C-84.01118359 107.71770471 -81.5280115 106.14588359 -78.40551758 103.65551758 C-76.20629883 102.31567383 -76.20629883 102.31567383 -72.95629883 102.00317383 C-68.37665965 103.60604754 -64.16583872 105.677135 -59.87817383 107.94067383 C-52.14077905 111.92249103 -41.67967692 111.32474517 -33.35864258 109.13989258 C-28.9549385 107.45353766 -25.08390121 104.96911846 -21.20629883 102.31567383 C-20.6159082 101.91219727 -20.02551758 101.5087207 -19.41723633 101.09301758 C-12.21155653 95.64256747 -8.34253611 86.88359326 -6.20629883 78.31567383 C-4.80001527 66.65914565 -7.0040325 54.86876929 -14.26879883 45.53051758 C-21.60318415 37.14625049 -29.85964262 32.66180866 -40.76879883 30.19067383 C-44.24502983 29.30581503 -45.09619457 29.02000284 -47.20629883 26.31567383 C-48.94985832 20.98243302 -49.88702205 14.87491346 -49.20629883 9.31567383 C-46.05988174 6.2384933 -42.58351735 5.35526166 -38.39379883 4.25317383 C-37.21172852 3.93219727 -36.0296582 3.6112207 -34.81176758 3.28051758 C-23.28220068 0.66865463 -11.77096475 -0.03482916 0 0 Z " fill="#E52134" transform="translate(827.206298828125,166.684326171875)"/>
<path d="M0 0 C1.34771484 -0.01160156 1.34771484 -0.01160156 2.72265625 -0.0234375 C16.46483035 0.01656883 27.70233413 4.97481406 38.5 13.25 C39.32886719 13.85972656 40.15773438 14.46945313 41.01171875 15.09765625 C49.40421443 22.35709914 54.22995848 32.87053785 57.5 43.25 C57.70109375 43.88035156 57.9021875 44.51070312 58.109375 45.16015625 C60.87673089 59.96551026 57.67557183 76.71301764 49.5 89.25 C40.22582436 101.46531761 27.74488694 110.51252193 12.58203125 113.90234375 C-4.116417 115.78594564 -19.68601054 113.84172245 -33.19921875 103.10546875 C-35.71935692 100.89422644 -38.12749816 98.61831753 -40.5 96.25 C-41.36431641 95.40308594 -41.36431641 95.40308594 -42.24609375 94.5390625 C-46.94064034 89.53967522 -49.69608269 83.44902201 -52.5 77.25 C-52.86609375 76.44820313 -53.2321875 75.64640625 -53.609375 74.8203125 C-58.43871397 60.88300967 -56.11796746 44.33766378 -50.14453125 31.2890625 C-43.45979067 18.20632624 -32.26386857 7.70858454 -18.5 2.25 C-12.22083819 0.3511705 -6.5398326 -0.05629698 0 0 Z " fill="#E52134" transform="translate(699.5,148.75)"/>
<path d="M0 0 C0.78753662 -0.01514648 1.57507324 -0.03029297 2.38647461 -0.04589844 C7.59482272 0.051127 10.68620393 1.05740237 14.75 4.5625 C32.9705853 28.16411796 38.71115537 60.52679259 39.75 89.5625 C39.14341553 89.5718457 38.53683105 89.58119141 37.91186523 89.59082031 C14.74431867 90.034052 -11.65461182 91.73110679 -32.25 103.5625 C-32.92804688 102.77746094 -33.60609375 101.99242187 -34.3046875 101.18359375 C-40.05833482 94.63601613 -45.65399721 88.99263092 -53.25 84.5625 C-53.82347168 84.22734375 -54.39694336 83.8921875 -54.98779297 83.546875 C-64.88068179 77.883536 -73.94823893 75.0377029 -85.25 73.5625 C-86.57186911 73.37548829 -87.89349574 73.1867525 -89.21484375 72.99609375 C-90.21644531 72.85300781 -91.21804688 72.70992188 -92.25 72.5625 C-92.3015625 71.93988281 -92.353125 71.31726563 -92.40625 70.67578125 C-93.6736554 60.34930772 -97.65231963 51.10582088 -101.54736328 41.52685547 C-102.25 39.5625 -102.25 39.5625 -102.25 37.5625 C-78.46531257 23.9838143 -54.14890568 14.25228639 -28.25 5.5625 C-27.26563965 5.22605469 -26.2812793 4.88960937 -25.26708984 4.54296875 C-16.80697923 1.68981884 -8.95405709 0.14708221 0 0 Z " fill="#FDFDFD" transform="translate(796.25,55.4375)"/>
<path d="M0 0 C0.85078125 -0.00773437 1.7015625 -0.01546875 2.578125 -0.0234375 C15.91331745 0.017468 28.82410358 4.3943084 38.49609375 13.6875 C44.98758615 20.77613265 45.62128224 28.32022041 45.41015625 37.5546875 C44.5472363 45.32918535 40.78555451 51.46512843 35.0703125 56.72265625 C22.55472688 65.95585244 7.43306774 67.47800778 -7.5 65.5 C-19.419501 63.45869624 -31.03270451 59.92841143 -38.74609375 50.11328125 C-43.50761675 43.03774708 -43.88627492 35.61925521 -43 27.25 C-41.30187926 20.06331044 -37.7427156 13.92745638 -32 9.25 C-21.64199392 3.00563724 -12.05590057 -0.1095991 0 0 Z " fill="#030302" transform="translate(501,486.75)"/>
<path d="M0 0 C5.76484728 3.27972421 8.46874121 7.15494181 10.91650391 13.18725586 C11.25037109 13.91170898 11.58423828 14.63616211 11.92822266 15.38256836 C16.23626123 26.57177262 15.1753315 41.3129461 11.18603516 52.37866211 C7.91195066 59.62194442 3.88459968 66.18399143 -3.74755859 69.26147461 C-10.87248009 71.23876547 -20.85397515 71.71991745 -27.70849609 68.62475586 C-35.10130983 63.96760888 -39.21383068 56.58729721 -41.6184082 48.35620117 C-44.04961317 37.01823532 -43.6835407 21.09096887 -37.79443359 10.97241211 C-28.20908021 -2.79051507 -15.32736597 -7.83920276 0 0 Z " fill="#020202" transform="translate(316.08349609375,422.812744140625)"/>
<path d="M0 0 C7.26479191 5.80883155 12.09405091 15.46610222 13.12988281 24.62792969 C14.15412901 38.18345617 12.45147994 51.09541938 3.4296875 61.8984375 C-1.03452126 66.57792536 -5.323814 70.06267289 -11.94140625 70.84765625 C-18.7058677 70.93631236 -23.49940819 70.38526726 -29.109375 66.51171875 C-29.72554687 66.11082031 -30.34171875 65.70992188 -30.9765625 65.296875 C-37.28157017 60.62900452 -39.69531559 53.75389698 -42.109375 46.51171875 C-43.32149859 31.14536713 -43.69870232 17.45025827 -33.734375 5.01171875 C-25.11020939 -3.77723984 -11.27665316 -6.13329418 0 0 Z " fill="#010101" transform="translate(705.109375,423.48828125)"/>
<path d="M0 0 C0.79881592 0.00161133 1.59763184 0.00322266 2.4206543 0.00488281 C10.85293988 0.18046577 16.97231901 2.53649665 23.1875 8.375 C26.02953761 12.63805642 25.80464631 16.37371046 25.1875 21.375 C22.53977463 26.67045074 17.56280145 28.52582379 12.1875 30.375 C2.28101573 32.80732378 -7.73188412 32.10672059 -16.8125 27.375 C-19.94415827 24.81854427 -22.65399483 22.31391759 -23.8125 18.375 C-23.57972717 12.09013368 -21.53024392 7.91156099 -16.9375 3.625 C-11.47425283 0.4113252 -6.17624719 -0.01288463 0 0 Z " fill="#EAC426" transform="translate(500.8125,504.625)"/>
<path d="M0 0 C1.30100594 0.64825209 2.59657001 1.30828909 3.875 2 C3.44049886 7.37797637 1.2810568 10.75532623 -1.8125 15 C-6.71856856 22.01392587 -10.07051425 29.01293253 -13.125 37 C-13.79011671 38.66728581 -14.4561985 40.33418885 -15.125 42 C-19.19564886 42.08480518 -21.17741126 41.82509971 -24.30078125 39.10546875 C-29.9188286 32.91226482 -32.64749274 28.13412535 -32.43359375 19.69140625 C-31.70451281 13.33271303 -29.55969091 7.88162376 -24.75 3.5625 C-23.56409456 2.67745852 -22.35664555 1.82019473 -21.125 1 C-20.196875 0.38125 -19.26875 -0.2375 -18.3125 -0.875 C-11.8950095 -3.13999665 -6.20048568 -2.74383697 0 0 Z " fill="#E32134" transform="translate(637.125,145)"/>
<path d="M0 0 C5.01330079 0.34976517 8.10272112 1.8652322 12 5 C15.94450211 9.5841511 17.41589568 14.01515976 17 20 C15.28242011 25.95285451 11.9387278 29.45699962 7 33 C3.07141609 34.96429196 -1.70731002 34.33401334 -6 34 C-9.1875 32.875 -9.1875 32.875 -11 31 C-11.52320555 26.05463243 -10.29288967 22.72008532 -8.25 18.25 C-7.69813009 17.02262434 -7.14735589 15.79475544 -6.59765625 14.56640625 C-6.07042969 13.38949219 -5.54320312 12.21257812 -5 11 C-3.89613353 8.27300276 -2.82258148 5.53688796 -1.76171875 2.79296875 C-1 1 -1 1 0 0 Z " fill="#E22133" transform="translate(782,220)"/>
</svg>
